<mxfile host="app.diagrams.net" modified="2020-11-02T09:34:13.189Z" agent="5.0 (Macintosh; Intel Mac OS X 10_15_7) AppleWebKit/537.36 (KHTML, like Gecko) Chrome/86.0.4240.111 Safari/537.36" etag="hH12rCFXa8qqDbsBa7hc" version="13.8.6" type="github">
  <diagram id="6a731a19-8d31-9384-78a2-239565b7b9f0" name="Page-1">
    <mxGraphModel dx="4074" dy="2203" grid="1" gridSize="10" guides="1" tooltips="1" connect="1" arrows="1" fold="1" page="1" pageScale="1" pageWidth="4681" pageHeight="3300" background="#ffffff" math="0" shadow="0">
      <root>
        <mxCell id="0" />
        <mxCell id="1" parent="0" />
        <mxCell id="jf6MFyAoFtC1wtGRMvgH-1779" value="sign in / up&lt;br&gt;" style="rounded=1;whiteSpace=wrap;html=1;" parent="1" vertex="1">
          <mxGeometry x="870" y="350" width="120" height="60" as="geometry" />
        </mxCell>
        <mxCell id="jf6MFyAoFtC1wtGRMvgH-1780" value="managers" style="rounded=1;whiteSpace=wrap;html=1;" parent="1" vertex="1">
          <mxGeometry x="700" y="460" width="120" height="60" as="geometry" />
        </mxCell>
        <mxCell id="jf6MFyAoFtC1wtGRMvgH-1781" value="students" style="rounded=1;whiteSpace=wrap;html=1;" parent="1" vertex="1">
          <mxGeometry x="930" y="464" width="120" height="60" as="geometry" />
        </mxCell>
        <mxCell id="jf6MFyAoFtC1wtGRMvgH-1782" value="admin panel&lt;br&gt;" style="rounded=1;whiteSpace=wrap;html=1;" parent="1" vertex="1">
          <mxGeometry x="610" y="500" width="120" height="60" as="geometry" />
        </mxCell>
        <mxCell id="jf6MFyAoFtC1wtGRMvgH-1783" value="battles" style="rounded=1;whiteSpace=wrap;html=1;" parent="1" vertex="1">
          <mxGeometry x="1110" y="530" width="120" height="60" as="geometry" />
        </mxCell>
        <mxCell id="jf6MFyAoFtC1wtGRMvgH-1784" value="courses" style="rounded=1;whiteSpace=wrap;html=1;" parent="1" vertex="1">
          <mxGeometry x="1020" y="500" width="120" height="60" as="geometry" />
        </mxCell>
        <mxCell id="jf6MFyAoFtC1wtGRMvgH-1785" value="certain course" style="text;html=1;strokeColor=none;fillColor=none;align=center;verticalAlign=middle;whiteSpace=wrap;rounded=0;" parent="1" vertex="1">
          <mxGeometry x="1180" y="600" width="110" height="20" as="geometry" />
        </mxCell>
        <mxCell id="jf6MFyAoFtC1wtGRMvgH-1786" value="experience" style="rounded=1;whiteSpace=wrap;html=1;" parent="1" vertex="1">
          <mxGeometry x="760" y="670" width="120" height="60" as="geometry" />
        </mxCell>
        <mxCell id="jf6MFyAoFtC1wtGRMvgH-1787" value="badges" style="rounded=1;whiteSpace=wrap;html=1;" parent="1" vertex="1">
          <mxGeometry x="760" y="740" width="120" height="60" as="geometry" />
        </mxCell>
        <mxCell id="jf6MFyAoFtC1wtGRMvgH-1788" value="avatars&lt;br&gt;" style="rounded=1;whiteSpace=wrap;html=1;" parent="1" vertex="1">
          <mxGeometry x="760" y="810" width="120" height="60" as="geometry" />
        </mxCell>
        <mxCell id="jf6MFyAoFtC1wtGRMvgH-1789" value="ect.........." style="rounded=1;whiteSpace=wrap;html=1;" parent="1" vertex="1">
          <mxGeometry x="890" y="810" width="120" height="60" as="geometry" />
        </mxCell>
        <mxCell id="jf6MFyAoFtC1wtGRMvgH-1790" value="landing page" style="rounded=1;whiteSpace=wrap;html=1;" parent="1" vertex="1">
          <mxGeometry x="660" y="320" width="120" height="60" as="geometry" />
        </mxCell>
        <mxCell id="jf6MFyAoFtC1wtGRMvgH-1791" value="i18n&lt;br&gt;" style="whiteSpace=wrap;html=1;aspect=fixed;" parent="1" vertex="1">
          <mxGeometry x="760" y="300" width="40" height="40" as="geometry" />
        </mxCell>
        <mxCell id="jf6MFyAoFtC1wtGRMvgH-1792" value="crud courses" style="rounded=1;whiteSpace=wrap;html=1;" parent="1" vertex="1">
          <mxGeometry x="400" y="560" width="120" height="60" as="geometry" />
        </mxCell>
        <mxCell id="jf6MFyAoFtC1wtGRMvgH-1794" value="experience" style="rounded=1;whiteSpace=wrap;html=1;" parent="1" vertex="1">
          <mxGeometry x="390" y="710" width="120" height="60" as="geometry" />
        </mxCell>
        <mxCell id="jf6MFyAoFtC1wtGRMvgH-1795" value="badges" style="rounded=1;whiteSpace=wrap;html=1;" parent="1" vertex="1">
          <mxGeometry x="390" y="757" width="120" height="60" as="geometry" />
        </mxCell>
        <mxCell id="jf6MFyAoFtC1wtGRMvgH-1796" value="avatars&lt;br&gt;" style="rounded=1;whiteSpace=wrap;html=1;" parent="1" vertex="1">
          <mxGeometry x="390" y="800" width="120" height="60" as="geometry" />
        </mxCell>
        <mxCell id="jf6MFyAoFtC1wtGRMvgH-1797" value="ect.........." style="rounded=1;whiteSpace=wrap;html=1;" parent="1" vertex="1">
          <mxGeometry x="480" y="817" width="120" height="60" as="geometry" />
        </mxCell>
        <mxCell id="jf6MFyAoFtC1wtGRMvgH-1793" value="crud" style="rounded=1;whiteSpace=wrap;html=1;" parent="1" vertex="1">
          <mxGeometry x="360" y="660" width="120" height="60" as="geometry" />
        </mxCell>
        <mxCell id="jf6MFyAoFtC1wtGRMvgH-1798" value="courses" style="rounded=1;whiteSpace=wrap;html=1;" parent="1" vertex="1">
          <mxGeometry x="390" y="850" width="120" height="60" as="geometry" />
        </mxCell>
        <mxCell id="jf6MFyAoFtC1wtGRMvgH-1799" value="tests" style="rounded=1;whiteSpace=wrap;html=1;" parent="1" vertex="1">
          <mxGeometry x="390" y="900" width="120" height="60" as="geometry" />
        </mxCell>
        <mxCell id="jf6MFyAoFtC1wtGRMvgH-1801" value="Chat ?" style="rounded=1;whiteSpace=wrap;html=1;" parent="1" vertex="1">
          <mxGeometry x="1210" y="370" width="120" height="60" as="geometry" />
        </mxCell>
        <mxCell id="jf6MFyAoFtC1wtGRMvgH-1802" value="React native &amp;amp; react &amp;amp; node js" style="text;html=1;strokeColor=none;fillColor=none;align=center;verticalAlign=middle;whiteSpace=wrap;rounded=0;" parent="1" vertex="1">
          <mxGeometry x="420" y="210" width="520" height="20" as="geometry" />
        </mxCell>
        <mxCell id="WpYxfZVgPixOf4zrMnOf-1" value="Конструктор оценки проектов" style="text;html=1;strokeColor=none;fillColor=none;align=center;verticalAlign=middle;whiteSpace=wrap;rounded=0;" parent="1" vertex="1">
          <mxGeometry x="2440" y="190" width="240" height="20" as="geometry" />
        </mxCell>
        <mxCell id="WpYxfZVgPixOf4zrMnOf-2" value="Модули&lt;br&gt;" style="rounded=0;whiteSpace=wrap;html=1;" parent="1" vertex="1">
          <mxGeometry x="2341" y="240" width="120" height="60" as="geometry" />
        </mxCell>
        <mxCell id="WpYxfZVgPixOf4zrMnOf-3" value="Компоненты" style="rounded=1;whiteSpace=wrap;html=1;" parent="1" vertex="1">
          <mxGeometry x="2410" y="320" width="120" height="60" as="geometry" />
        </mxCell>
        <mxCell id="WpYxfZVgPixOf4zrMnOf-5" value="верстка" style="shape=document;whiteSpace=wrap;html=1;boundedLbl=1;" parent="1" vertex="1">
          <mxGeometry x="2340" y="400" width="120" height="80" as="geometry" />
        </mxCell>
        <mxCell id="WpYxfZVgPixOf4zrMnOf-6" value="логика" style="shape=document;whiteSpace=wrap;html=1;boundedLbl=1;" parent="1" vertex="1">
          <mxGeometry x="2480" y="400" width="120" height="80" as="geometry" />
        </mxCell>
        <mxCell id="WpYxfZVgPixOf4zrMnOf-7" value="доп. модули" style="rounded=0;whiteSpace=wrap;html=1;" parent="1" vertex="1">
          <mxGeometry x="2500" y="500" width="120" height="60" as="geometry" />
        </mxCell>
        <mxCell id="WpYxfZVgPixOf4zrMnOf-8" value="валидация&lt;br&gt;пагинация&lt;br&gt;etc" style="rounded=0;whiteSpace=wrap;html=1;" parent="1" vertex="1">
          <mxGeometry x="2510" y="550" width="100" height="50" as="geometry" />
        </mxCell>
        <mxCell id="WpYxfZVgPixOf4zrMnOf-10" value="" style="endArrow=none;dashed=1;html=1;dashPattern=1 3;strokeWidth=2;entryX=0.5;entryY=1;entryDx=0;entryDy=0;exitX=0.5;exitY=0;exitDx=0;exitDy=0;" parent="1" source="WpYxfZVgPixOf4zrMnOf-3" target="WpYxfZVgPixOf4zrMnOf-2" edge="1">
          <mxGeometry width="50" height="50" relative="1" as="geometry">
            <mxPoint x="2500" y="500" as="sourcePoint" />
            <mxPoint x="2550" y="450" as="targetPoint" />
          </mxGeometry>
        </mxCell>
        <mxCell id="WpYxfZVgPixOf4zrMnOf-11" value="" style="endArrow=none;dashed=1;html=1;dashPattern=1 3;strokeWidth=2;exitX=0.5;exitY=0;exitDx=0;exitDy=0;" parent="1" source="WpYxfZVgPixOf4zrMnOf-5" edge="1">
          <mxGeometry width="50" height="50" relative="1" as="geometry">
            <mxPoint x="2360" y="410" as="sourcePoint" />
            <mxPoint x="2410" y="360" as="targetPoint" />
          </mxGeometry>
        </mxCell>
        <mxCell id="WpYxfZVgPixOf4zrMnOf-12" value="" style="endArrow=none;dashed=1;html=1;dashPattern=1 3;strokeWidth=2;entryX=1;entryY=0.5;entryDx=0;entryDy=0;exitX=0.5;exitY=0;exitDx=0;exitDy=0;" parent="1" source="WpYxfZVgPixOf4zrMnOf-6" target="WpYxfZVgPixOf4zrMnOf-3" edge="1">
          <mxGeometry width="50" height="50" relative="1" as="geometry">
            <mxPoint x="2530" y="400" as="sourcePoint" />
            <mxPoint x="2580" y="350" as="targetPoint" />
          </mxGeometry>
        </mxCell>
        <mxCell id="WpYxfZVgPixOf4zrMnOf-13" value="доп. модули" style="rounded=0;whiteSpace=wrap;html=1;" parent="1" vertex="1">
          <mxGeometry x="2250" y="490" width="120" height="60" as="geometry" />
        </mxCell>
        <mxCell id="WpYxfZVgPixOf4zrMnOf-14" value="анимации" style="rounded=0;whiteSpace=wrap;html=1;" parent="1" vertex="1">
          <mxGeometry x="2260" y="540" width="100" height="50" as="geometry" />
        </mxCell>
        <mxCell id="WpYxfZVgPixOf4zrMnOf-15" value="мобильная версия" style="whiteSpace=wrap;html=1;aspect=fixed;" parent="1" vertex="1">
          <mxGeometry x="2220" y="120" width="80" height="80" as="geometry" />
        </mxCell>
        <mxCell id="WpYxfZVgPixOf4zrMnOf-16" value="платежные системы" style="rounded=0;whiteSpace=wrap;html=1;" parent="1" vertex="1">
          <mxGeometry x="2650" y="540" width="150" height="60" as="geometry" />
        </mxCell>
        <mxCell id="WpYxfZVgPixOf4zrMnOf-17" value="кабинеты" style="rounded=0;whiteSpace=wrap;html=1;" parent="1" vertex="1">
          <mxGeometry x="2650" y="610" width="150" height="60" as="geometry" />
        </mxCell>
        <mxCell id="WpYxfZVgPixOf4zrMnOf-18" value="бэк лог&amp;nbsp;&lt;br&gt;все возможные кейсы&lt;br&gt;фронт бэк&lt;br&gt;изображения с примерами&lt;br&gt;база данных с существующими оценками" style="shape=process;whiteSpace=wrap;html=1;backgroundOutline=1;" parent="1" vertex="1">
          <mxGeometry x="2850" y="230" width="160" height="190" as="geometry" />
        </mxCell>
        <mxCell id="WpYxfZVgPixOf4zrMnOf-19" value="добавление кастомных блоков" style="rounded=0;whiteSpace=wrap;html=1;" parent="1" vertex="1">
          <mxGeometry x="3020" y="230" width="120" height="60" as="geometry" />
        </mxCell>
        <mxCell id="WpYxfZVgPixOf4zrMnOf-20" value="ссылки на примеры" style="rounded=0;whiteSpace=wrap;html=1;" parent="1" vertex="1">
          <mxGeometry x="3020" y="295" width="180" height="60" as="geometry" />
        </mxCell>
        <mxCell id="WpYxfZVgPixOf4zrMnOf-21" value="снепшоты примеров" style="rounded=0;whiteSpace=wrap;html=1;" parent="1" vertex="1">
          <mxGeometry x="3020" y="360" width="180" height="60" as="geometry" />
        </mxCell>
        <mxCell id="WpYxfZVgPixOf4zrMnOf-22" value="какие то готовые кейсы оформленные и стандартизированные" style="rounded=0;whiteSpace=wrap;html=1;" parent="1" vertex="1">
          <mxGeometry x="2850" y="430" width="210" height="60" as="geometry" />
        </mxCell>
        <mxCell id="WpYxfZVgPixOf4zrMnOf-23" value="клиент может сам себе натыкать" style="rounded=1;whiteSpace=wrap;html=1;" parent="1" vertex="1">
          <mxGeometry x="2640" y="50" width="120" height="60" as="geometry" />
        </mxCell>
        <mxCell id="WpYxfZVgPixOf4zrMnOf-24" value="админы&amp;nbsp;" style="rounded=1;whiteSpace=wrap;html=1;" parent="1" vertex="1">
          <mxGeometry x="2770" y="60" width="120" height="60" as="geometry" />
        </mxCell>
        <mxCell id="WpYxfZVgPixOf4zrMnOf-25" value="drag &amp;amp; drop" style="rounded=0;whiteSpace=wrap;html=1;" parent="1" vertex="1">
          <mxGeometry x="3070" y="430" width="120" height="30" as="geometry" />
        </mxCell>
        <mxCell id="WpYxfZVgPixOf4zrMnOf-26" value="табы" style="rounded=0;whiteSpace=wrap;html=1;" parent="1" vertex="1">
          <mxGeometry x="3070" y="460" width="120" height="30" as="geometry" />
        </mxCell>
        <mxCell id="WpYxfZVgPixOf4zrMnOf-29" value="вывод сметы в формате документа&lt;br&gt;" style="rounded=0;whiteSpace=wrap;html=1;" parent="1" vertex="1">
          <mxGeometry x="3070" y="490" width="120" height="40" as="geometry" />
        </mxCell>
        <mxCell id="WpYxfZVgPixOf4zrMnOf-30" value="возможность оставление заявки" style="rounded=0;whiteSpace=wrap;html=1;" parent="1" vertex="1">
          <mxGeometry x="3070" y="530" width="120" height="30" as="geometry" />
        </mxCell>
        <mxCell id="WpYxfZVgPixOf4zrMnOf-31" value="платная подписка" style="rounded=0;whiteSpace=wrap;html=1;" parent="1" vertex="1">
          <mxGeometry x="3070" y="560" width="120" height="30" as="geometry" />
        </mxCell>
        <mxCell id="WpYxfZVgPixOf4zrMnOf-32" value="Бекэнд" style="rounded=0;whiteSpace=wrap;html=1;" parent="1" vertex="1">
          <mxGeometry x="2080" y="130" width="120" height="60" as="geometry" />
        </mxCell>
        <mxCell id="WpYxfZVgPixOf4zrMnOf-33" value="Мобильные приложения" style="rounded=0;whiteSpace=wrap;html=1;" parent="1" vertex="1">
          <mxGeometry x="2080" y="200" width="120" height="60" as="geometry" />
        </mxCell>
        <mxCell id="rzb7qr46lppCU6PiXd_A-2" value="" style="rounded=0;whiteSpace=wrap;html=1;" vertex="1" parent="1">
          <mxGeometry x="560" y="1310" width="1410" height="1100" as="geometry" />
        </mxCell>
        <mxCell id="rzb7qr46lppCU6PiXd_A-3" value="" style="rounded=0;whiteSpace=wrap;html=1;" vertex="1" parent="1">
          <mxGeometry x="560" y="1310" width="250" height="1100" as="geometry" />
        </mxCell>
        <mxCell id="rzb7qr46lppCU6PiXd_A-5" value="" style="ellipse;whiteSpace=wrap;html=1;aspect=fixed;" vertex="1" parent="1">
          <mxGeometry x="1870" y="1330" width="80" height="80" as="geometry" />
        </mxCell>
        <mxCell id="rzb7qr46lppCU6PiXd_A-6" value="&lt;font style=&quot;font-size: 24px&quot;&gt;User name&lt;/font&gt;" style="text;html=1;strokeColor=none;fillColor=none;align=center;verticalAlign=middle;whiteSpace=wrap;rounded=0;" vertex="1" parent="1">
          <mxGeometry x="1710" y="1345" width="150" height="50" as="geometry" />
        </mxCell>
        <mxCell id="rzb7qr46lppCU6PiXd_A-7" value="" style="rounded=0;whiteSpace=wrap;html=1;" vertex="1" parent="1">
          <mxGeometry x="2000" y="1440" width="140" height="240" as="geometry" />
        </mxCell>
        <mxCell id="rzb7qr46lppCU6PiXd_A-8" value="" style="triangle;whiteSpace=wrap;html=1;rotation=-90;" vertex="1" parent="1">
          <mxGeometry x="2090" y="1410" width="30" height="40" as="geometry" />
        </mxCell>
        <mxCell id="rzb7qr46lppCU6PiXd_A-9" value="" style="rounded=0;whiteSpace=wrap;html=1;" vertex="1" parent="1">
          <mxGeometry x="850" y="1430" width="470" height="920" as="geometry" />
        </mxCell>
        <mxCell id="rzb7qr46lppCU6PiXd_A-10" value="Text area" style="text;html=1;strokeColor=none;fillColor=none;align=center;verticalAlign=middle;whiteSpace=wrap;rounded=0;fontSize=38;" vertex="1" parent="1">
          <mxGeometry x="820" y="1395" width="240" height="150" as="geometry" />
        </mxCell>
        <mxCell id="rzb7qr46lppCU6PiXd_A-11" value="quill?" style="text;html=1;strokeColor=none;fillColor=none;align=center;verticalAlign=middle;whiteSpace=wrap;rounded=0;fontSize=38;" vertex="1" parent="1">
          <mxGeometry x="800" y="2260" width="250" height="120" as="geometry" />
        </mxCell>
        <mxCell id="rzb7qr46lppCU6PiXd_A-12" value="Logo" style="text;html=1;strokeColor=none;fillColor=none;align=center;verticalAlign=middle;whiteSpace=wrap;rounded=0;fontSize=38;" vertex="1" parent="1">
          <mxGeometry x="560" y="1310" width="140" height="100" as="geometry" />
        </mxCell>
        <mxCell id="rzb7qr46lppCU6PiXd_A-13" value="...266" style="text;html=1;strokeColor=none;fillColor=none;align=center;verticalAlign=middle;whiteSpace=wrap;rounded=0;fontSize=38;" vertex="1" parent="1">
          <mxGeometry x="1240" y="2300" width="40" height="20" as="geometry" />
        </mxCell>
        <mxCell id="rzb7qr46lppCU6PiXd_A-14" value="+ Landing page" style="text;html=1;strokeColor=none;fillColor=none;align=center;verticalAlign=middle;whiteSpace=wrap;rounded=0;fontSize=38;" vertex="1" parent="1">
          <mxGeometry x="650" y="1190" width="410" height="20" as="geometry" />
        </mxCell>
        <mxCell id="rzb7qr46lppCU6PiXd_A-15" value="рабочая область&amp;nbsp;" style="rounded=0;whiteSpace=wrap;html=1;fontSize=38;" vertex="1" parent="1">
          <mxGeometry x="2760" y="1570" width="360" height="180" as="geometry" />
        </mxCell>
        <mxCell id="rzb7qr46lppCU6PiXd_A-21" value="" style="edgeStyle=orthogonalEdgeStyle;rounded=0;orthogonalLoop=1;jettySize=auto;html=1;fontSize=38;entryX=0.5;entryY=0;entryDx=0;entryDy=0;" edge="1" parent="1" source="rzb7qr46lppCU6PiXd_A-17" target="rzb7qr46lppCU6PiXd_A-18">
          <mxGeometry relative="1" as="geometry">
            <mxPoint x="2639.999999999999" y="1470" as="targetPoint" />
          </mxGeometry>
        </mxCell>
        <mxCell id="rzb7qr46lppCU6PiXd_A-17" value="Список записей и темы" style="rounded=0;whiteSpace=wrap;html=1;fontSize=38;" vertex="1" parent="1">
          <mxGeometry x="2480" y="1170" width="320" height="220" as="geometry" />
        </mxCell>
        <mxCell id="rzb7qr46lppCU6PiXd_A-18" value="Просмотр записи" style="whiteSpace=wrap;html=1;aspect=fixed;fontSize=38;" vertex="1" parent="1">
          <mxGeometry x="2350" y="1640" width="220" height="220" as="geometry" />
        </mxCell>
        <mxCell id="rzb7qr46lppCU6PiXd_A-19" value="diff" style="rounded=0;whiteSpace=wrap;html=1;fontSize=38;" vertex="1" parent="1">
          <mxGeometry x="2350" y="1860" width="220" height="60" as="geometry" />
        </mxCell>
        <mxCell id="rzb7qr46lppCU6PiXd_A-22" value="lang" style="rounded=0;whiteSpace=wrap;html=1;fontSize=38;" vertex="1" parent="1">
          <mxGeometry x="1570" y="1335" width="120" height="60" as="geometry" />
        </mxCell>
        <mxCell id="rzb7qr46lppCU6PiXd_A-23" value="lang" style="rounded=0;whiteSpace=wrap;html=1;fontSize=38;" vertex="1" parent="1">
          <mxGeometry x="1180" y="1450" width="120" height="60" as="geometry" />
        </mxCell>
        <mxCell id="rzb7qr46lppCU6PiXd_A-24" value="" style="rounded=0;whiteSpace=wrap;html=1;" vertex="1" parent="1">
          <mxGeometry x="1350" y="1430" width="470" height="920" as="geometry" />
        </mxCell>
        <mxCell id="rzb7qr46lppCU6PiXd_A-25" value="...266" style="text;html=1;strokeColor=none;fillColor=none;align=center;verticalAlign=middle;whiteSpace=wrap;rounded=0;fontSize=38;" vertex="1" parent="1">
          <mxGeometry x="1740" y="2300" width="40" height="20" as="geometry" />
        </mxCell>
        <mxCell id="rzb7qr46lppCU6PiXd_A-26" value="lang" style="rounded=0;whiteSpace=wrap;html=1;fontSize=38;" vertex="1" parent="1">
          <mxGeometry x="1680" y="1450" width="120" height="60" as="geometry" />
        </mxCell>
        <mxCell id="rzb7qr46lppCU6PiXd_A-27" value="&lt;h1&gt;Heading&lt;/h1&gt;&lt;p&gt;Lorem ipsum dolor sit amet, consectetur adipisicing elit, sed do eiusmod tempor incididunt ut labore et dolore magna aliqua.&lt;/p&gt;" style="text;html=1;strokeColor=none;fillColor=none;spacing=5;spacingTop=-20;whiteSpace=wrap;overflow=hidden;rounded=0;fontSize=38;" vertex="1" parent="1">
          <mxGeometry x="1370" y="1540" width="310" height="550" as="geometry" />
        </mxCell>
        <mxCell id="rzb7qr46lppCU6PiXd_A-28" value="&lt;h1&gt;Heading&lt;/h1&gt;&lt;p&gt;Lorem ipsum dolor sit amet, consectetur adipisicing elit, sed do eiusmod tempor incididunt ut labore et dolore magna aliqua.&lt;/p&gt;" style="text;html=1;strokeColor=none;fillColor=none;spacing=5;spacingTop=-20;whiteSpace=wrap;overflow=hidden;rounded=0;fontSize=38;" vertex="1" parent="1">
          <mxGeometry x="870" y="1545" width="310" height="550" as="geometry" />
        </mxCell>
        <mxCell id="rzb7qr46lppCU6PiXd_A-29" value="&lt;font style=&quot;font-size: 28px&quot;&gt;translate&lt;/font&gt;" style="rounded=0;whiteSpace=wrap;html=1;fontSize=38;" vertex="1" parent="1">
          <mxGeometry x="1680" y="1520" width="120" height="60" as="geometry" />
        </mxCell>
        <mxCell id="rzb7qr46lppCU6PiXd_A-30" value="API translate" style="rounded=0;whiteSpace=wrap;html=1;fontSize=38;" vertex="1" parent="1">
          <mxGeometry x="3120" y="1570" width="280" height="80" as="geometry" />
        </mxCell>
        <mxCell id="rzb7qr46lppCU6PiXd_A-32" value="Список тем" style="rounded=0;whiteSpace=wrap;html=1;fontSize=38;" vertex="1" parent="1">
          <mxGeometry x="3230" y="1170" width="380" height="60" as="geometry" />
        </mxCell>
        <mxCell id="rzb7qr46lppCU6PiXd_A-33" value="Категории тем" style="rounded=0;whiteSpace=wrap;html=1;fontSize=38;" vertex="1" parent="1">
          <mxGeometry x="2800" y="1170" width="330" height="60" as="geometry" />
        </mxCell>
        <mxCell id="rzb7qr46lppCU6PiXd_A-34" value="" style="endArrow=classic;html=1;fontSize=38;entryX=0;entryY=0.5;entryDx=0;entryDy=0;" edge="1" parent="1" source="rzb7qr46lppCU6PiXd_A-33" target="rzb7qr46lppCU6PiXd_A-32">
          <mxGeometry width="50" height="50" relative="1" as="geometry">
            <mxPoint x="3130" y="1250" as="sourcePoint" />
            <mxPoint x="3200.710678118655" y="1200" as="targetPoint" />
          </mxGeometry>
        </mxCell>
        <mxCell id="rzb7qr46lppCU6PiXd_A-35" value="Личный кабинет" style="rounded=0;whiteSpace=wrap;html=1;fontSize=38;" vertex="1" parent="1">
          <mxGeometry x="2760" y="1850" width="360" height="140" as="geometry" />
        </mxCell>
      </root>
    </mxGraphModel>
  </diagram>
</mxfile>
